Coordinates
version=1
nRows=26
nColumns=11
inDegrees=yes

Units are S.I. units (second, meters, Newtons, ...)
If the header above contains a line with 'inDegrees', this indicates whether rotational values are in degrees (yes) or radians (no).

endheader
time	pelvis_tilt	pelvis_tx	pelvis_ty	hip_flexion_l	hip_flexion_r	knee_angle_l	knee_angle_r	ankle_angle_l	ankle_angle_r	lumbar_extension
      2.69000000	      8.24066011	     -0.16285660	      0.91459930	     27.55529108	    -14.53162646	    -33.58220016	    -17.14617433	     -4.09254072	     10.94180708	    -16.64257784
      2.70000000	      8.18053241	     -0.15320090	      0.91265763	     27.07929143	    -14.77235807	    -31.89639989	    -17.86495285	     -3.93669927	     11.08831382	    -16.63465210
      2.71000000	      8.05701946	     -0.14327241	      0.91068103	     26.75475316	    -15.02266209	    -30.81232605	    -18.47854187	     -4.14791509	     11.28581348	    -16.51213551
      2.72000000	      7.89372851	     -0.13315698	      0.90841265	     26.64334293	    -15.17780534	    -30.47869866	    -19.20597921	     -4.33274941	     11.40786474	    -16.36576663
      2.73000000	      7.65296065	     -0.12326446	      0.90634463	     26.60293875	    -15.27083042	    -30.44187601	    -19.86859939	     -4.45039263	     11.51102399	    -16.15437748
      2.74000000	      7.27647418	     -0.11337872	      0.90379983	     26.75020900	    -15.11859151	    -30.75182331	    -20.71616317	     -4.69185475	     11.56676176	    -15.81659384
      2.75000000	      7.09483946	     -0.10264144	      0.90169475	     26.45909946	    -15.25623167	    -30.97366671	    -21.47880805	     -5.00067722	     11.59332847	    -15.59188754
      2.76000000	      6.76937551	     -0.09212782	      0.89958913	     26.12633623	    -15.16133844	    -30.93983090	    -22.36920718	     -5.22377678	     11.50267288	    -15.24414201
      2.77000000	      6.52568486	     -0.08108592	      0.89775166	     25.39636128	    -15.15960980	    -30.52664861	    -23.26657727	     -5.56777917	     11.11069447	    -14.94625549
      2.78000000	      6.09977292	     -0.06977564	      0.89577968	     24.56953980	    -14.92643672	    -29.71111636	    -24.28510572	     -5.31840790	     10.78578004	    -14.42894955
      2.79000000	      5.67677204	     -0.05875062	      0.89412729	     23.51942822	    -14.54780547	    -28.64741808	    -25.43206234	     -3.00421234	     10.03566547	    -13.97263397
      2.80000000	      4.71963992	     -0.04837020	      0.89240248	     23.19283599	    -13.32893643	    -27.56690261	    -26.95538426	     -2.30608682	      9.44276024	    -13.00564952
      2.81000000	      3.73241802	     -0.03873642	      0.89109467	     23.43526921	    -11.84631985	    -27.32455572	    -28.73957561	     -1.72355244	      8.18512370	    -12.15824836
      2.82000000	      3.12922385	     -0.02839023	      0.89059029	     24.01865734	    -10.71829741	    -28.34427514	    -30.67361097	     -0.76837002	      7.03738526	    -11.60560669
      2.83000000	      2.47118765	     -0.01991356	      0.89057927	     25.10121483	     -9.20988391	    -29.83048405	    -32.74912437	     -0.03281384	      5.39111439	    -11.36154344
      2.84000000	      2.19874038	     -0.01017634	      0.89108036	     25.36061408	     -8.30844399	    -30.92902638	    -34.74140214	      0.72441709	      3.90565849	    -11.36539680
      2.85000000	      2.08882971	     -0.00047421	      0.89223801	     24.97035116	     -7.51361639	    -31.32709771	    -36.68118983	      1.54830842	      2.17417929	    -11.58601471
      2.86000000	      1.52365161	      0.00878402	      0.89281087	     24.82529514	     -6.00550537	    -31.19513186	    -38.87744520	      2.16081212	      0.02625512	    -11.32000858
      2.87000000	      1.17338980	      0.01842185	      0.89428471	     24.02202342	     -4.71000674	    -30.43340946	    -40.93116112	      2.69519494	     -2.49802401	    -11.28849623
      2.88000000	      0.51596469	      0.02775739	      0.89533752	     23.48167656	     -2.78568625	    -29.49196937	    -43.26987240	      3.14082866	     -5.33002834	    -10.93122028
      2.89000000	     -0.06532938	      0.03711673	      0.89660341	     22.81665355	     -0.73889102	    -28.45306587	    -45.77312648	      3.50439445	     -8.30171720	    -10.64961466
      2.90000000	     -0.76568624	      0.04609886	      0.89795591	     22.37137036	      1.66256126	    -27.51992170	    -48.39018847	      3.76897438	    -11.28983204	    -10.27089370
      2.91000000	     -1.48373864	      0.05405976	      0.89946554	     22.04533120	      4.30438240	    -26.61195767	    -51.11132419	      3.98090800	    -14.12738354	    -10.05474648
      2.92000000	     -2.09639670	      0.06175587	      0.90106783	     21.64175933	      6.96159865	    -25.73889835	    -53.87377319	      4.11673544	    -16.11201117	    -10.00014558
      2.93000000	     -2.62572078	      0.07057751	      0.90266673	     20.96109955	      9.37952069	    -24.66451491	    -56.35094228	      4.27292362	    -16.48039091	     -9.85731363
      2.94000000	     -2.84764240	      0.07918590	      0.90469156	     19.94831916	     11.50321692	    -23.55922490	    -58.58030304	      4.42255704	    -15.16256526	    -10.22254954
